<?xml version="1.0" encoding="UTF-8"?>
<svg id="Layer_2" xmlns="http://www.w3.org/2000/svg" version="1.1" viewBox="0 0 317.6 70">
  <!-- Generator: Adobe Illustrator 30.3.0, SVG Export Plug-In . SVG Version: 2.1.3 Build 182)  -->
  <defs>
    <style>
      .st0 {
        fill: #26619c;
      }
    </style>
  </defs>
  <g>
    <path class="st0" d="M109.1,26.6c-.7-.8-1.5-1.4-2.5-1.9-1.2-.6-2.6-.9-4.2-.9-3,0-5.5,1.1-7.4,3.3-2,2.2-2.9,5.1-2.9,8.7s1,6.5,2.9,8.7,4.4,3.2,7.4,3.2,3.2-.3,4.4-1c1.2-.6,2.2-1.5,2.9-2.6v3.1h6.4V16h-7v10.6ZM107.8,39.9c-1,1.1-2.2,1.7-3.6,1.7s-2.7-.5-3.6-1.5-1.4-2.5-1.4-4.3.5-3.3,1.4-4.3c.9-1,2.2-1.6,3.7-1.6s2.7.5,3.6,1.6c1,1.1,1.4,2.5,1.4,4.3s-.5,3.1-1.4,4.2Z"/>
    <path class="st0" d="M130.1,23.8c-3.4,0-6.3,1.1-8.4,3.4-2.2,2.3-3.3,5.1-3.3,8.5s1.1,6.4,3.3,8.6c2.2,2.2,5.1,3.3,8.6,3.3s4.6-.5,6.3-1.6c1.7-1.1,3.2-2.5,4.3-4.4l-4.6-2.6c-.6,1.2-1.4,2-2.3,2.6-.9.6-2,.8-3.2.8-1.8,0-3.2-.6-4.3-1.8-.6-.7-1-1.5-1.3-2.4h16.1c0-.5.1-1,.2-1.4,0-.5,0-.9,0-1.4,0-3.5-1.1-6.3-3.2-8.5-2.1-2.1-4.8-3.2-8-3.2ZM125.1,33.1c.3-.8.6-1.5,1.2-2.1,1-1.2,2.4-1.7,4-1.7s2.4.4,3.3,1.1c.9.7,1.4,1.6,1.6,2.7h-10.1Z"/>
    <path class="st0" d="M154.4,33.1c-2.1-.5-3.3-.9-3.9-1.3s-.8-.8-.8-1.3.3-1,.8-1.4c.5-.4,1.3-.5,2.1-.5s1.9.2,2.7.6,1.6,1.1,2.3,2.1l4.2-2.9c-1.1-1.6-2.4-2.7-3.9-3.4-1.5-.7-3.3-1.1-5.4-1.1s-4.9.6-6.7,1.8-2.7,2.9-2.7,5.1.6,3.5,1.9,4.6c1.3,1.1,3.3,2,6.2,2.7,1.9.5,3,.9,3.6,1.2.5.4.8.8.8,1.4s-.3,1.2-.8,1.6c-.5.4-1.3.6-2.4.6s-2.3-.3-3.3-.8-1.8-1.5-2.5-2.7l-4.5,2.7c1.2,2,2.6,3.5,4.3,4.4,1.7.9,3.7,1.3,6.2,1.3s5.2-.6,6.9-1.9c1.7-1.3,2.6-3.1,2.6-5.4s-.6-3.2-1.7-4.4c-1.1-1.2-3.2-2.1-6.2-2.8Z"/>
    <path class="st0" d="M168.3,14c-1.1,0-2.1.4-2.9,1.1s-1.2,1.7-1.2,2.8.4,2.1,1.2,2.8c.8.8,1.8,1.2,2.9,1.2s2.1-.4,2.9-1.2c.8-.8,1.2-1.7,1.2-2.9s-.4-2.1-1.2-2.8c-.8-.8-1.8-1.1-2.9-1.1Z"/>
    <rect class="st0" x="164.8" y="24.3" width="7" height="22.8"/>
    <path class="st0" d="M191.7,27h0c-.6-.8-1.5-1.6-2.6-2.2-1.2-.6-2.6-1-4.3-1-3,0-5.5,1.1-7.4,3.2-1.9,2.1-2.9,4.9-2.9,8.4s.9,6.1,2.8,8.1c1.9,2,4.4,3,7.5,3s2.9-.3,4.1-.9c1.1-.6,1.9-1.3,2.4-2h0v1.5c0,1.7-.5,3.1-1.4,4.1s-2.2,1.5-3.9,1.5-2.3-.3-3.2-.9c-.9-.6-1.6-1.5-2.2-2.6l-5.7,2.5c1.3,2.3,2.8,3.9,4.6,4.9,1.7,1,4,1.5,6.7,1.5,4,0,7-1.1,8.9-3.3s3-5.3,3-9.5v-19h-6.5v2.7ZM190.1,39.5c-.9,1-2.1,1.5-3.6,1.5s-2.6-.5-3.6-1.4c-.9-1-1.4-2.3-1.4-4.1s.5-3.1,1.4-4.1c.9-1,2.1-1.5,3.6-1.5s2.7.5,3.6,1.5c.9,1,1.4,2.4,1.4,4.1s-.5,3-1.4,4Z"/>
    <path class="st0" d="M215.8,23.7c-1.6,0-3,.3-4.3,1-1.3.7-2.3,1.6-3,2.7v-3.2h-6.8v22.8h7v-12.7c0-1.4.4-2.5,1.2-3.3.8-.8,1.8-1.3,3.1-1.3s2.3.4,2.9,1.1c.6.7.9,1.8.9,3v13.2h7v-14.9c0-2.7-.7-4.8-2.1-6.3-1.4-1.5-3.4-2.2-5.8-2.2Z"/>
    <path class="st0" d="M242.2,15.5c-4.6,0-8.3,1.5-11.3,4.6s-4.4,6.9-4.4,11.5,1.5,8.4,4.4,11.4c3,3.1,6.7,4.6,11.3,4.6s8.3-1.5,11.3-4.6c3-3.1,4.5-6.9,4.5-11.4s-1.5-8.4-4.5-11.4c-3-3.1-6.8-4.6-11.3-4.6ZM251.2,40.8c-2.3,2.5-5.3,3.7-8.9,3.7s-6.6-1.2-8.9-3.7-3.4-5.5-3.4-9.3,1.1-6.8,3.4-9.2,5.3-3.7,8.9-3.7,6.6,1.2,8.9,3.7,3.5,5.5,3.5,9.2-1.2,6.8-3.5,9.2Z"/>
    <path class="st0" d="M272.7,24c-1.9,0-3.6.4-5,1.3-1.3.8-2.3,1.8-3,3.1v-3.9h-3.1v31.2h3.2v-12.2c.7,1.2,1.6,2.2,3,2.9,1.5.8,3.1,1.2,4.8,1.2,2.9,0,5.4-1.1,7.3-3.2,1.9-2.1,2.9-5,2.9-8.6,0-3.6-1-6.4-2.9-8.5-1.9-2.1-4.3-3.2-7.3-3.2ZM277.5,42.2c-1.4,1.5-3.2,2.3-5.4,2.3s-3.9-.8-5.3-2.4c-1.4-1.6-2.1-3.7-2.1-6.3s.7-4.6,2.1-6.3c1.4-1.7,3.2-2.5,5.4-2.5s3.9.8,5.3,2.3c1.4,1.5,2.1,3.7,2.1,6.5s-.7,5-2,6.5Z"/>
    <path class="st0" d="M300.4,36.9c-1-1.1-3-2-5.8-2.7-2.5-.6-4.2-1.3-4.9-1.9-.7-.6-1.1-1.3-1.1-2.2s.4-1.7,1.3-2.3c.9-.6,2-.9,3.4-.9s2.2.3,3.1.8c.9.5,1.6,1.3,2.2,2.4l2.8-1.3c-.7-1.5-1.8-2.7-3.2-3.5s-3-1.2-4.8-1.2-4.2.6-5.8,1.8c-1.5,1.2-2.3,2.7-2.3,4.5s.6,3.3,1.8,4.3c1.2,1,3.2,1.8,6.1,2.6,2.2.6,3.6,1.1,4.3,1.7.7.6,1,1.3,1,2.2s-.4,2-1.2,2.6c-.8.6-2,.9-3.6.9s-2.7-.3-3.7-1c-1-.7-1.8-1.8-2.6-3.3l-2.9,1.4c.9,2,2.1,3.5,3.6,4.4,1.5.9,3.3,1.4,5.4,1.4s4.3-.6,5.9-1.9c1.6-1.2,2.3-2.9,2.3-4.9s-.5-2.8-1.5-3.9Z"/>
  </g>
  <path class="st0" d="M76.6,22.4c-1.6-3.8-3.9-7.3-6.9-10.2-2.9-2.9-6.4-5.3-10.2-6.9-4-1.7-8.2-2.5-12.5-2.5s-8.5.9-12.5,2.5c-3.8,1.6-7.3,3.9-10.2,6.9-2.9,2.9-5.3,6.4-6.9,10.2-1.7,4-2.5,8.2-2.5,12.5v5.9h11.5v-5.9c0-11.4,9.3-20.6,20.6-20.6s20.6,9.3,20.6,20.6-9.3,20.8-20.8,20.8h-8.1c.6-1.2,1.2-2.4,1.8-3.7,1.5-3.6,2.6-7.4,3.1-11.3h7c3.2,0,5.7-2.6,5.7-5.8h0c0-3.2-2.6-5.8-5.7-5.8h-18.1v5.8c0,7.7-2.7,14.8-7.2,20.3-1.4,2.1-3,4.1-4.8,5.9-1.7,1.7-3.6,3.2-5.5,4.6v1.4h32c4.4,0,8.6-.9,12.6-2.5,3.8-1.6,7.3-4,10.3-6.9,3-3,5.3-6.4,6.9-10.3,1.7-4,2.5-8.2,2.5-12.6s-.9-8.5-2.5-12.5c0,0-.2.1-.2,0Z"/>
</svg>