<?xml version="1.0" encoding="UTF-8"?>
<svg id="Layer_2" data-name="Layer 2" xmlns="http://www.w3.org/2000/svg" viewBox="0 0 64.4 64.3">
  <defs>
    <style>
      .cls-1 {
        fill: #26619c;
      }
    </style>
  </defs>
  <g id="Layer_2-2" data-name="Layer 2">
    <path class="cls-1" d="M61.7,19.6c-1.6-3.8-3.9-7.3-6.9-10.2-2.9-2.9-6.4-5.3-10.2-6.9-4-1.7-8.2-2.5-12.5-2.5s-8.5.9-12.5,2.5c-3.8,1.6-7.3,3.9-10.2,6.9-2.9,2.9-5.3,6.4-6.9,10.2-1.7,4-2.5,8.2-2.5,12.5v5.9h11.5v-5.9c0-11.4,9.3-20.6,20.6-20.6s20.6,9.3,20.6,20.6-9.3,20.8-20.8,20.8h-8.1c.6-1.2,1.2-2.4,1.8-3.7,1.5-3.6,2.6-7.4,3.1-11.3h7c3.2,0,5.7-2.6,5.7-5.8h0c0-3.2-2.6-5.8-5.7-5.8h-18.1v5.8c0,7.7-2.7,14.8-7.2,20.3-1.4,2.1-3,4.1-4.8,5.9-1.7,1.7-3.6,3.2-5.5,4.6v1.4h32c4.4,0,8.6-.9,12.6-2.5,3.8-1.6,7.3-4,10.3-6.9,3-3,5.3-6.4,6.9-10.3,1.7-4,2.5-8.2,2.5-12.6s-.9-8.5-2.5-12.5c0,0-.2.1-.2.1Z"/>
  </g>
</svg>